<svg id="Group_1" data-name="Group 1" xmlns="http://www.w3.org/2000/svg" width="888.006" height="552.781" viewBox="0 0 888.006 552.781">
  <rect id="Rectangle_1" data-name="Rectangle 1" width="182" height="332" transform="translate(615.007 108)" fill="#e6e6e6"/>
  <path id="Path_1" data-name="Path 1" d="M788,596.61H936v-298H788Z" transform="translate(-155.997 -173.61)" fill="#fff"/>
  <rect id="Rectangle_2" data-name="Rectangle 2" width="43.223" height="4.014" transform="translate(688.874 188.915)" fill="#e6e6e6"/>
  <rect id="Rectangle_3" data-name="Rectangle 3" width="75.335" height="4.014" transform="translate(688.874 202.8)" fill="#e6e6e6"/>
  <rect id="Rectangle_4" data-name="Rectangle 4" width="75.261" height="4.014" transform="translate(688.874 216.685)" fill="#e6e6e6"/>
  <rect id="Rectangle_5" data-name="Rectangle 5" width="32.111" height="32.111" transform="translate(647.805 188.974)" fill="#e6e6e6"/>
  <rect id="Rectangle_6" data-name="Rectangle 6" width="43.223" height="4.014" transform="translate(688.874 257.915)" fill="#e6e6e6"/>
  <rect id="Rectangle_7" data-name="Rectangle 7" width="75.335" height="4.014" transform="translate(688.874 271.8)" fill="#e6e6e6"/>
  <rect id="Rectangle_8" data-name="Rectangle 8" width="75.261" height="4.014" transform="translate(688.874 285.685)" fill="#e6e6e6"/>
  <rect id="Rectangle_9" data-name="Rectangle 9" width="32.111" height="32.111" transform="translate(647.805 257.974)" fill="#e6e6e6"/>
  <rect id="Rectangle_10" data-name="Rectangle 10" width="43.223" height="4.014" transform="translate(688.874 326.915)" fill="#e6e6e6"/>
  <rect id="Rectangle_11" data-name="Rectangle 11" width="75.335" height="4.014" transform="translate(688.874 340.8)" fill="#e6e6e6"/>
  <rect id="Rectangle_12" data-name="Rectangle 12" width="75.261" height="4.014" transform="translate(688.874 354.685)" fill="#e6e6e6"/>
  <rect id="Rectangle_13" data-name="Rectangle 13" width="32.111" height="32.111" transform="translate(647.805 326.974)" fill="#e6e6e6"/>
  <rect id="Rectangle_14" data-name="Rectangle 14" width="182" height="332" transform="translate(107.007 108)" fill="#e6e6e6"/>
  <path id="Path_2" data-name="Path 2" d="M280,596.61H428v-298H280Z" transform="translate(-155.997 -173.61)" fill="#fff"/>
  <rect id="Rectangle_15" data-name="Rectangle 15" width="43.223" height="4.014" transform="translate(180.874 188.915)" fill="#e6e6e6"/>
  <rect id="Rectangle_16" data-name="Rectangle 16" width="75.335" height="4.014" transform="translate(180.874 202.8)" fill="#e6e6e6"/>
  <rect id="Rectangle_17" data-name="Rectangle 17" width="75.261" height="4.014" transform="translate(180.874 216.685)" fill="#e6e6e6"/>
  <rect id="Rectangle_18" data-name="Rectangle 18" width="32.111" height="32.111" transform="translate(139.805 188.974)" fill="#e6e6e6"/>
  <rect id="Rectangle_19" data-name="Rectangle 19" width="43.223" height="4.014" transform="translate(180.874 257.915)" fill="#e6e6e6"/>
  <rect id="Rectangle_20" data-name="Rectangle 20" width="75.335" height="4.014" transform="translate(180.874 271.8)" fill="#e6e6e6"/>
  <rect id="Rectangle_21" data-name="Rectangle 21" width="75.261" height="4.014" transform="translate(180.874 285.685)" fill="#e6e6e6"/>
  <rect id="Rectangle_22" data-name="Rectangle 22" width="32.111" height="32.111" transform="translate(139.805 257.974)" fill="#e6e6e6"/>
  <rect id="Rectangle_23" data-name="Rectangle 23" width="43.223" height="4.014" transform="translate(180.874 326.915)" fill="#e6e6e6"/>
  <rect id="Rectangle_24" data-name="Rectangle 24" width="75.335" height="4.014" transform="translate(180.874 340.8)" fill="#e6e6e6"/>
  <rect id="Rectangle_25" data-name="Rectangle 25" width="75.261" height="4.014" transform="translate(180.874 354.685)" fill="#e6e6e6"/>
  <rect id="Rectangle_26" data-name="Rectangle 26" width="32.111" height="32.111" transform="translate(139.805 326.974)" fill="#e6e6e6"/>
  <ellipse id="Ellipse_1" data-name="Ellipse 1" cx="444.003" cy="18" rx="444.003" ry="18" transform="translate(0 431)" fill="#e6e6e6"/>
  <rect id="Rectangle_27" data-name="Rectangle 27" width="247.783" height="452" transform="translate(328.115)" fill="#3f3d56"/>
  <path id="Path_3" data-name="Path 3" d="M494.82,614.11H721.188v-429H494.82Z" transform="translate(-155.997 -173.61)" fill="#fff"/>
  <rect id="Rectangle_28" data-name="Rectangle 28" width="58.846" height="5.465" transform="translate(428.681 110.161)" fill="#6c63ff"/>
  <rect id="Rectangle_29" data-name="Rectangle 29" width="102.564" height="5.465" transform="translate(428.681 129.065)" fill="#e6e6e6"/>
  <rect id="Rectangle_30" data-name="Rectangle 30" width="102.463" height="5.465" transform="translate(428.681 147.969)" fill="#e6e6e6"/>
  <rect id="Rectangle_31" data-name="Rectangle 31" width="43.718" height="43.718" transform="translate(372.768 110.242)" fill="#6c63ff"/>
  <rect id="Rectangle_32" data-name="Rectangle 32" width="58.846" height="5.465" transform="translate(428.681 204.101)" fill="#6c63ff"/>
  <rect id="Rectangle_33" data-name="Rectangle 33" width="102.564" height="5.465" transform="translate(428.681 223.005)" fill="#e6e6e6"/>
  <rect id="Rectangle_34" data-name="Rectangle 34" width="102.463" height="5.465" transform="translate(428.681 241.909)" fill="#e6e6e6"/>
  <rect id="Rectangle_35" data-name="Rectangle 35" width="43.718" height="43.718" transform="translate(372.768 204.182)" fill="#6c63ff"/>
  <rect id="Rectangle_36" data-name="Rectangle 36" width="58.846" height="5.465" transform="translate(428.681 298.04)" fill="#6c63ff"/>
  <rect id="Rectangle_37" data-name="Rectangle 37" width="102.564" height="5.465" transform="translate(428.681 316.944)" fill="#e6e6e6"/>
  <rect id="Rectangle_38" data-name="Rectangle 38" width="102.463" height="5.465" transform="translate(428.681 335.849)" fill="#e6e6e6"/>
  <rect id="Rectangle_39" data-name="Rectangle 39" width="43.718" height="43.718" transform="translate(372.768 298.121)" fill="#6c63ff"/>
  <path id="Path_4" data-name="Path 4" d="M517.5,494.11l-3,13s1,30-7,27-6-29-6-29l7-13Z" transform="translate(-155.997 -173.61)" fill="#ffb8b8"/>
  <circle id="Ellipse_2" data-name="Ellipse 2" cx="20" cy="20" r="20" transform="translate(297.007 138)" fill="#ffb8b8"/>
  <path id="Path_5" data-name="Path 5" d="M457.5,337.11l-2,29,25,3s0-24,2-27S457.5,337.11,457.5,337.11Z" transform="translate(-155.997 -173.61)" fill="#ffb8b8"/>
  <path id="Path_6" data-name="Path 6" d="M513,374.61,480.621,360.9s-15.469-11.936-24.543-3.111L452,363.61s-36,14-36,25l14,55s-8,31,4,33l65,6s9-11,1-25l3-33Z" transform="translate(-155.997 -173.61)" fill="#575a89"/>
  <path id="Path_7" data-name="Path 7" d="M491,375.61l22-1s7,2,12,21,6,50,6,50l-12,56-15-2,6-54-10-36Z" transform="translate(-155.997 -173.61)" fill="#575a89"/>
  <path id="Path_8" data-name="Path 8" d="M428,381.61l-10.846,3.378S408,398.61,408,405.61s-4,60-4,60l26,43,8-21-16-27,13-33Z" transform="translate(-155.997 -173.61)" fill="#575a89"/>
  <path id="Path_9" data-name="Path 9" d="M502,480.61l-71.9-6.326S423,519.61,424,537.61s2,46,2,46l-8,122,31-4,4-101,13-55,15,70,10,90,27-3-9-109S517,495.61,502,480.61Z" transform="translate(-155.997 -173.61)" fill="#2f2e41"/>
  <path id="Path_10" data-name="Path 10" d="M512,697.61l9,3s19-5,14,8-19,11-19,11-17,13-24,3l4-21Z" transform="translate(-155.997 -173.61)" fill="#2f2e41"/>
  <path id="Path_11" data-name="Path 11" d="M439,697.61l9,3s19-5,14,8-19,11-19,11-17,13-24,3l4-21Z" transform="translate(-155.997 -173.61)" fill="#2f2e41"/>
  <path id="Path_12" data-name="Path 12" d="M457.5,349.11s-21-15-10-33c7.631-12.487,23.444-11.5,32.414-9.722A15.154,15.154,0,0,1,491,315.11c1.5,3.5,1.5,7-4.5,7-12,0-6,9-6,9s-8,2-6,9S457.5,349.11,457.5,349.11Z" transform="translate(-155.997 -173.61)" fill="#2f2e41"/>
</svg>
