<svg id="Group_3" data-name="Group 3" xmlns="http://www.w3.org/2000/svg" width="888" height="664.795" viewBox="0 0 888 664.795">
  <path id="Path_28" data-name="Path 28" d="M1007.716,708.095l3.323-13.106a170.184,170.184,0,0,1,18.055-6.478l.42,6.091,1.7-6.71c7.609-2.173,12.785-3.13,12.785-3.13s-6.992,26.589-21.657,46.916l-17.088,3,13.276,1.914a68.851,68.851,0,0,1-5.938,6.293c-21.334,19.8-45.1,28.888-53.074,20.293s2.849-31.616,24.183-51.418c6.614-6.139,14.922-11.065,23.239-14.943Z" transform="translate(-156 -117.602)" fill="#bdb9fd"/>
  <path id="Path_29" data-name="Path 29" d="M976.113,693.862l-3.93-12.937a170.184,170.184,0,0,1,12.108-14.878l3.508,5-2.012-6.624c5.391-5.793,9.327-9.288,9.327-9.288s7.758,26.375,5.711,51.357l-13.077,11.4,12.354-5.224a68.836,68.836,0,0,1-1.831,8.457c-8.027,27.979-23.672,48.04-34.944,44.806s-13.9-28.537-5.876-56.517c2.488-8.674,7.054-17.186,12.169-24.8Z" transform="translate(-156 -117.602)" fill="#bdb9fd"/>
  <rect id="Rectangle_52" data-name="Rectangle 52" width="516" height="2" transform="translate(370 647.398)" fill="#3f3d56"/>
  <path id="Path_30" data-name="Path 30" d="M180.218,378.977c-6.984-10.367-9.987-28.78,3-37.855,6.442-4.5,14.262-3.951,21.032-1.971,9.365,2.739,17.692,8.323,24.9,14.571,8.309,7.206,15.422,15.655,22.436,24.106,6.924,8.344,13.942,16.59,21.3,24.543a503.427,503.427,0,0,0,46.375,44.095,499.581,499.581,0,0,0,50.54,37.186q13.113,8.426,26.787,15.993a238.93,238.93,0,0,0,26.213,13c11.964,4.811,32.464,11.535,43.074-1.962,5.626-7.156,5.907-16.866,4.637-25.022-1.536-9.862-5.408-19.064-9.224-28.054-17.748-41.813-35.7-83.525-53.555-125.286-4.167-9.747-8.458-19.456-11.919-29.529-3.24-9.431-5.938-19.375-6-29.646-.056-8.972,1.893-19.1,8.718-26.006,5.66-5.731,13.59-7.628,21.058-7.585,18.488.108,35.859,9.518,50.218,19.437,17.84,12.323,33.6,27.293,51.368,39.708,14.349,10.025,31.224,19.11,49.537,20.26,7.021.441,14.473-.5,20.869-4.331a28.851,28.851,0,0,0,12.481-16.791c2.4-8.069,2.1-16.593.827-24.546a101.374,101.374,0,0,0-8.568-26.874c-8.658-18.5-20.489-35.08-30.677-52.639-5-8.611-9.876-17.486-12.99-27.091-2.638-8.137-4.784-17.768-2.178-26.591,5.378-18.2,27.242-11.353,38.328-6.1a177.487,177.487,0,0,1,21.666,12.618c1.49.984,2.938-1.627,1.456-2.607a170.428,170.428,0,0,0-22.835-13.162c-6.758-3.092-14.2-5.79-21.95-5.642-6.511.125-13.074,2.852-16.9,8.678-4.522,6.893-4.21,15.8-2.993,23.2,1.609,9.779,5.451,18.813,9.882,27.408,4.666,9.053,9.99,17.708,15.345,26.325,10.7,17.219,22.426,34.638,27.763,54.74,3.734,14.062,6.093,36.025-9.1,46.06-6.746,4.455-15.013,5.1-22.477,4.26-9.021-1.014-17.614-4.012-25.639-7.779-37.421-17.563-62.349-54.031-102.243-67.518-13.564-4.585-32.546-7.513-44.483,4.886-6.2,6.441-8.688,15.384-9.246,23.788-.669,10.065,1.432,19.97,4.287,29.291a289.758,289.758,0,0,0,11.038,28.738q6.709,15.719,13.435,31.429l27.183,63.589L456.5,453.888c4.122,9.643,8.54,19.333,10.689,29.786,1.759,8.559,2.258,20.337-5.281,27.223-5.987,5.468-14.735,5.215-21.744,3.945-9.076-1.644-17.614-5.238-25.741-9.2-9.373-4.573-18.5-9.646-27.456-14.923a485.746,485.746,0,0,1-52.984-36.179,504.972,504.972,0,0,1-48.045-42.848Q274.5,400.1,263.828,387.762c-7.329-8.477-14.212-17.356-21.8-25.6-6.866-7.456-14.383-14.367-23.122-19.626-7.3-4.391-15.923-8.062-24.9-7.773a22.568,22.568,0,0,0-16.572,7.952,27.833,27.833,0,0,0-6.144,17.628,35.866,35.866,0,0,0,6.4,20.223c1,1.481,3.528-.1,2.526-1.591Z" transform="translate(-156 -117.602)" fill="#8c85fc"/>
  <rect id="Rectangle_53" data-name="Rectangle 53" width="119.819" height="106.387" transform="translate(18.795 20.137)" fill="#bdb9fd"/>
  <rect id="Rectangle_54" data-name="Rectangle 54" width="119.819" height="106.387" transform="translate(18.795 211.633)" fill="#6c63ff"/>
  <rect id="Rectangle_55" data-name="Rectangle 55" width="119.819" height="106.387" transform="translate(403.795 20.137)" fill="#6c63ff"/>
  <path id="Path_42" data-name="Path 42" d="M0,0H119.819V106.387H0Z" transform="translate(403.795 211.633)" fill="#bdb9fd"/>
  <rect id="Rectangle_57" data-name="Rectangle 57" width="119.819" height="106.387" transform="translate(212.655 20.137)" fill="#6c63ff"/>
  <rect id="Rectangle_58" data-name="Rectangle 58" width="119.819" height="106.387" transform="translate(212.655 211.633)" fill="#6c63ff"/>
  <circle id="Ellipse_8" data-name="Ellipse 8" cx="20" cy="20" r="20" transform="translate(193)" fill="#3f3d56"/>
  <circle id="Ellipse_9" data-name="Ellipse 9" cx="20" cy="20" r="20" transform="translate(386)" fill="#3f3d56"/>
  <circle id="Ellipse_10" data-name="Ellipse 10" cx="20" cy="20" r="20" transform="translate(0 192)" fill="#3f3d56"/>
  <circle id="Ellipse_11" data-name="Ellipse 11" cx="20" cy="20" r="20" transform="translate(193 192)" fill="#3f3d56"/>
  <path id="Path_31" data-name="Path 31" d="M835.3,754.74s-27.952,2.15-25.085,12.184,25.085,8.6,25.085,8.6,17.2-1.433,26.518,1.433,20.068,0,20.785-5.017-5.017-8.6-5.017-8.6L874,756.174Z" transform="translate(-156 -117.602)" fill="#2f2e41"/>
  <path id="Path_32" data-name="Path 32" d="M761.837,530.767l-2.867,11.467s-12.9,26.518,2.867,26.518,10.034-24.368,10.034-24.368l1.433-11.467Z" transform="translate(-156 -117.602)" fill="#9f616a"/>
  <path id="Path_33" data-name="Path 33" d="M900.163,521.45l2.867,11.467s12.9,26.518-2.867,26.518-10.034-24.368-10.034-24.368L888.7,523.6Z" transform="translate(-156 -117.602)" fill="#9f616a"/>
  <circle id="Ellipse_12" data-name="Ellipse 12" cx="30.819" cy="30.819" r="30.819" transform="translate(638.806 147.263)" fill="#9f616a"/>
  <path id="Path_34" data-name="Path 34" d="M816.307,319.336s3.584,16.484,1.433,24.368,44.436-1.433,44.436-1.433-16.484-27.235-15.768-27.952Z" transform="translate(-156 -117.602)" fill="#9f616a"/>
  <path id="Path_35" data-name="Path 35" d="M823.474,337.971s-12.9-3.584-17.2.717-29.385,16.484-29.385,16.484l17.2,105.357,74.538-16.484,12.9-99.623s-20.324-11.918-23.78-9.543S823.474,337.971,823.474,337.971Z" transform="translate(-156 -117.602)" fill="#d0cde1"/>
  <path id="Path_36" data-name="Path 36" d="M782.622,355.888l-3.44-1.845s-13.044,2.562-12.328,12.6,3.584,65.938,3.584,65.938L758.97,533.634l20.785,3.584,20.785-84.572Z" transform="translate(-156 -117.602)" fill="#d0cde1"/>
  <path id="Path_37" data-name="Path 37" d="M879.378,346.571l3.44-1.845s13.044,2.562,12.328,12.6-3.584,65.938-3.584,65.938L903.03,524.316,882.245,527.9,861.46,443.328Z" transform="translate(-156 -117.602)" fill="#d0cde1"/>
  <path id="Path_38" data-name="Path 38" d="M794.806,449.778l-2.867,43.72-9.317,87.439,13.618,181.329,47.3,1.433L829.208,590.971l14.334-59.487,46.855-1.735s3.315-68.5-23.2-90Z" transform="translate(-156 -117.602)" fill="#2f2e41"/>
  <path id="Path_39" data-name="Path 39" d="M690.409,403.847l-7.525,158.036L680.375,641.8l42.287,4.3L733.331,411.08l-16.4-16.55Z" fill="#2f2e41"/>
  <path id="Path_40" data-name="Path 40" d="M839.242,254.832s-27.952-3.584-35.836,10.034c0,0-2.15,10.034-9.317,13.618s1.433,15.768,3.584,19.351,7.884,24.368,1.433,29.385,11.467,19.351,11.467,19.351,8.6,11.467,1.433,20.068,9.317,11.467,9.317,11.467-3.584,24.368,2.867,17.918c0,0,2.867,55.187,30.1,20.785s38.7-50.887,27.235-64.5-2.867-25.8-2.867-25.8,3.584-7.167-4.3-17.918S866.477,254.832,839.242,254.832Z" transform="translate(-156 -117.602)" fill="#2f2e41"/>
  <path id="Path_41" data-name="Path 41" d="M798.748,759.041s-27.952,2.15-25.085,12.184,25.085,8.6,25.085,8.6,17.2-1.433,26.518,1.433,20.068,0,20.785-5.017-5.017-8.6-5.017-8.6l-3.584-7.167Z" transform="translate(-156 -117.602)" fill="#2f2e41"/>
</svg>
