<svg xmlns="http://www.w3.org/2000/svg" width="58.358" height="67.934" viewBox="0 0 58.358 67.934">
  <path id="Icon_awesome-share-alt" data-name="Icon awesome-share-alt" d="M45.852,42.459a12.31,12.31,0,0,0-7.788,2.772l-13.35-8.5a13.043,13.043,0,0,0,0-5.531l13.35-8.5a12.309,12.309,0,0,0,7.788,2.773A12.623,12.623,0,0,0,58.358,12.738a12.507,12.507,0,1,0-25.01,0,13.005,13.005,0,0,0,.3,2.765L20.294,24a12.31,12.31,0,0,0-7.788-2.772,12.74,12.74,0,0,0,0,25.475,12.31,12.31,0,0,0,7.788-2.772l13.35,8.5a13.005,13.005,0,0,0-.3,2.765A12.507,12.507,0,1,0,45.852,42.459Z"/>
</svg>
