<svg xmlns="http://www.w3.org/2000/svg" width="73.711" height="59.867" viewBox="0 0 73.711 59.867">
  <path id="Icon_awesome-twitter" data-name="Icon awesome-twitter" d="M66.135,18.3c.047.655.047,1.31.047,1.964,0,19.971-15.2,42.983-42.983,42.983A42.691,42.691,0,0,1,0,56.466a31.253,31.253,0,0,0,3.648.187A30.255,30.255,0,0,0,22.4,50.2,15.134,15.134,0,0,1,8.278,39.722a19.051,19.051,0,0,0,2.853.234,15.978,15.978,0,0,0,3.976-.514A15.109,15.109,0,0,1,2.993,24.615v-.187a15.214,15.214,0,0,0,6.829,1.918A15.13,15.13,0,0,1,5.145,6.14a42.941,42.941,0,0,0,31.15,15.809,17.054,17.054,0,0,1-.374-3.461A15.122,15.122,0,0,1,62.065,8.151,29.743,29.743,0,0,0,71.654,4.5a15.066,15.066,0,0,1-6.642,8.325,30.285,30.285,0,0,0,8.7-2.338A32.474,32.474,0,0,1,66.135,18.3Z" transform="translate(0 -3.381)"/>
</svg>
